# Blender v2.78 (sub 0) OBJ File: 'RoundCube.obj'
# www.blender.org
mtllib RoundCube1.mtl
o Cube
v 1.000000 1.000000 -0.750019
v 0.750160 1.000000 -1.000000
v 1.000000 0.750014 -1.000000
v -0.750160 1.000000 -1.000000
v -1.000000 1.000000 -0.750019
v -1.000000 0.750014 -1.000000
v 1.000000 1.000000 0.750019
v 0.750160 1.000000 1.000000
v 1.000000 0.750014 1.000000
v -1.000000 1.000000 0.750019
v 0.000000 1.000000 0.000000
v -0.750160 1.000000 1.000000
v -1.000000 0.750014 1.000000
v 1.000000 -0.750014 -1.000000
v 1.000000 -1.000000 -0.750019
v 0.750160 -1.000000 -1.000000
v 0.000000 0.000000 -1.000000
v -1.000000 -1.000000 -0.750019
v -0.750160 -1.000000 -1.000000
v -1.000000 -0.750014 -1.000000
v 1.000000 0.000000 0.000000
v 1.000000 -1.000000 0.750019
v 0.750160 -1.000000 1.000000
v 1.000000 -0.750014 1.000000
v -1.000000 -0.750014 1.000000
v -1.000000 0.000000 0.000000
v 0.000000 0.000000 0.000000
v 0.000000 0.000000 1.000000
v 0.000000 -1.000000 0.000000
v -0.750160 -1.000000 1.000000
v -1.000000 -1.000000 0.750019
vn 1.0000 -0.0000 0.0000
vn 0.0000 1.0000 0.0000
vn 0.0000 0.0000 -1.0000
vn 0.5776 0.5772 -0.5772
vn -1.0000 -0.0000 0.0000
vn 0.8834 0.3313 -0.3313
vn -0.5776 0.5772 -0.5772
vn -0.3313 -0.3313 -0.8834
vn 0.0000 0.0000 1.0000
vn 0.5776 0.5772 0.5772
vn -0.3313 0.3313 -0.8834
vn 0.8834 -0.3313 -0.3313
vn -0.5776 0.5772 0.5772
vn 0.3313 0.8834 -0.3313
vn 0.0000 -1.0000 0.0000
vn 0.5776 -0.5772 -0.5772
vn 0.3313 0.8834 0.3313
vn 0.8834 0.3313 0.3313
vn -0.5776 -0.5772 -0.5772
vn -0.3313 0.8834 -0.3313
vn 0.3313 -0.3313 -0.8834
vn 0.5776 -0.5772 0.5772
vn -0.3313 0.8834 0.3313
vn 0.3313 0.3313 -0.8834
vn 0.8834 -0.3313 0.3313
vn -0.5776 -0.5772 0.5772
usemtl Material
s off
f 14//1 3//1 1//1 21//1
f 1//2 2//2 4//2 11//2
f 2//3 3//3 14//3 17//3 4//3
f 1//4 3//4 2//4
f 6//5 26//5 10//5 5//5
f 27//6 17//6 4//6 11//6
f 5//2 10//2 11//2 4//2
f 4//3 17//3 6//3
f 5//7 4//7 6//7
f 9//1 21//1 1//1 7//1
f 21//8 27//8 11//8 1//8
f 7//2 1//2 11//2 8//2
f 8//9 28//9 9//9
f 7//10 8//10 9//10
f 25//5 13//5 10//5 26//5
f 26//11 10//11 11//11 27//11
f 27//12 11//12 8//12 28//12
f 10//2 12//2 8//2 11//2
f 12//9 13//9 25//9 28//9 8//9
f 10//13 13//13 12//13
f 14//14 17//14 27//14 21//14
f 14//1 21//1 22//1 15//1
f 15//15 22//15 29//15 16//15
f 16//3 17//3 14//3
f 15//16 16//16 14//16
f 6//17 26//17 27//17 17//17
f 6//5 20//5 18//5 26//5
f 27//18 29//18 16//18 17//18
f 18//15 19//15 16//15 29//15
f 19//3 20//3 6//3 17//3 16//3
f 18//19 20//19 19//19
f 9//20 21//20 27//20 28//20
f 9//1 24//1 22//1 21//1
f 21//21 22//21 29//21 27//21
f 22//15 23//15 30//15 29//15
f 23//9 24//9 9//9 28//9 30//9
f 22//22 24//22 23//22
f 25//23 28//23 27//23 26//23
f 25//5 26//5 18//5 31//5
f 26//24 27//24 29//24 18//24
f 27//25 28//25 30//25 29//25
f 31//15 18//15 29//15 30//15
f 30//9 28//9 25//9
f 31//26 30//26 25//26
